<mxfile host="Electron" agent="Mozilla/5.0 (Windows NT 10.0; Win64; x64) AppleWebKit/537.36 (KHTML, like Gecko) draw.io/24.7.8 Chrome/128.0.6613.36 Electron/32.0.1 Safari/537.36" version="24.7.8">
  <diagram name="Page-1" id="nYRZ3kaHpsnXC5sWInqd">
    <mxGraphModel dx="532" dy="606" grid="1" gridSize="10" guides="1" tooltips="1" connect="1" arrows="1" fold="1" page="1" pageScale="1" pageWidth="850" pageHeight="1100" math="0" shadow="0">
      <root>
        <mxCell id="0" />
        <mxCell id="1" parent="0" />
        <mxCell id="lHKm8etOPAzbKyVX3uG3-1" value="Stop" style="ellipse;whiteSpace=wrap;html=1;" parent="1" vertex="1">
          <mxGeometry x="730" y="160" width="111" height="70" as="geometry" />
        </mxCell>
        <mxCell id="lHKm8etOPAzbKyVX3uG3-2" value="Start" style="ellipse;whiteSpace=wrap;html=1;" parent="1" vertex="1">
          <mxGeometry x="6" y="160" width="104" height="70" as="geometry" />
        </mxCell>
        <mxCell id="lHKm8etOPAzbKyVX3uG3-5" value="Plan" style="rounded=0;whiteSpace=wrap;html=1;" parent="1" vertex="1">
          <mxGeometry x="138" y="100" width="90" height="39" as="geometry" />
        </mxCell>
        <mxCell id="lHKm8etOPAzbKyVX3uG3-25" style="edgeStyle=orthogonalEdgeStyle;rounded=0;orthogonalLoop=1;jettySize=auto;html=1;exitX=0.5;exitY=1;exitDx=0;exitDy=0;entryX=0.5;entryY=0;entryDx=0;entryDy=0;" parent="1" source="lHKm8etOPAzbKyVX3uG3-6" target="lHKm8etOPAzbKyVX3uG3-24" edge="1">
          <mxGeometry relative="1" as="geometry" />
        </mxCell>
        <mxCell id="lHKm8etOPAzbKyVX3uG3-6" value="Process" style="rounded=0;whiteSpace=wrap;html=1;" parent="1" vertex="1">
          <mxGeometry x="426" y="90" width="90" height="39" as="geometry" />
        </mxCell>
        <mxCell id="lHKm8etOPAzbKyVX3uG3-17" style="edgeStyle=orthogonalEdgeStyle;rounded=0;orthogonalLoop=1;jettySize=auto;html=1;exitX=0.5;exitY=1;exitDx=0;exitDy=0;entryX=0.5;entryY=0;entryDx=0;entryDy=0;" parent="1" source="lHKm8etOPAzbKyVX3uG3-8" target="lHKm8etOPAzbKyVX3uG3-14" edge="1">
          <mxGeometry relative="1" as="geometry" />
        </mxCell>
        <mxCell id="lHKm8etOPAzbKyVX3uG3-8" value="Input" style="shape=parallelogram;perimeter=parallelogramPerimeter;whiteSpace=wrap;html=1;fixedSize=1;" parent="1" vertex="1">
          <mxGeometry x="276" y="97" width="120" height="40" as="geometry" />
        </mxCell>
        <mxCell id="lHKm8etOPAzbKyVX3uG3-33" style="edgeStyle=orthogonalEdgeStyle;rounded=0;orthogonalLoop=1;jettySize=auto;html=1;exitX=0.5;exitY=1;exitDx=0;exitDy=0;entryX=0.5;entryY=0;entryDx=0;entryDy=0;" parent="1" source="lHKm8etOPAzbKyVX3uG3-9" target="lHKm8etOPAzbKyVX3uG3-29" edge="1">
          <mxGeometry relative="1" as="geometry" />
        </mxCell>
        <mxCell id="lHKm8etOPAzbKyVX3uG3-9" value="Output" style="shape=parallelogram;perimeter=parallelogramPerimeter;whiteSpace=wrap;html=1;fixedSize=1;" parent="1" vertex="1">
          <mxGeometry x="587" y="98" width="120" height="40" as="geometry" />
        </mxCell>
        <mxCell id="lHKm8etOPAzbKyVX3uG3-11" value="CustomerLastname&lt;div&gt;#ProjectedHours&lt;/div&gt;&lt;div&gt;WholesaleCostOfMaterials&lt;/div&gt;&lt;div&gt;&lt;br&gt;&lt;/div&gt;" style="whiteSpace=wrap;html=1;aspect=fixed;align=left;" parent="1" vertex="1">
          <mxGeometry x="116" y="170" width="146" height="146" as="geometry" />
        </mxCell>
        <mxCell id="lHKm8etOPAzbKyVX3uG3-16" value="" style="edgeStyle=orthogonalEdgeStyle;rounded=0;orthogonalLoop=1;jettySize=auto;html=1;" parent="1" source="lHKm8etOPAzbKyVX3uG3-14" target="lHKm8etOPAzbKyVX3uG3-15" edge="1">
          <mxGeometry relative="1" as="geometry" />
        </mxCell>
        <mxCell id="lHKm8etOPAzbKyVX3uG3-14" value="&lt;div&gt;&lt;br&gt;&lt;/div&gt;&amp;nbsp; &amp;nbsp;inputCustomerL&lt;div&gt;astName&lt;div&gt;&lt;br&gt;&lt;/div&gt;&lt;/div&gt;" style="shape=parallelogram;perimeter=parallelogramPerimeter;whiteSpace=wrap;html=1;fixedSize=1;" parent="1" vertex="1">
          <mxGeometry x="276" y="178" width="120" height="40" as="geometry" />
        </mxCell>
        <mxCell id="lHKm8etOPAzbKyVX3uG3-23" style="edgeStyle=orthogonalEdgeStyle;rounded=0;orthogonalLoop=1;jettySize=auto;html=1;exitX=0.5;exitY=1;exitDx=0;exitDy=0;entryX=0.5;entryY=0;entryDx=0;entryDy=0;" parent="1" source="lHKm8etOPAzbKyVX3uG3-15" target="lHKm8etOPAzbKyVX3uG3-18" edge="1">
          <mxGeometry relative="1" as="geometry" />
        </mxCell>
        <mxCell id="lHKm8etOPAzbKyVX3uG3-15" value="&lt;div&gt;&lt;br&gt;&lt;/div&gt;&lt;div&gt;&lt;div&gt;inputNumberof&lt;/div&gt;&lt;div&gt;HoursForProject&lt;/div&gt;&lt;div&gt;&lt;br&gt;&lt;/div&gt;&lt;/div&gt;" style="shape=parallelogram;perimeter=parallelogramPerimeter;whiteSpace=wrap;html=1;fixedSize=1;" parent="1" vertex="1">
          <mxGeometry x="276" y="261" width="120" height="49" as="geometry" />
        </mxCell>
        <mxCell id="lHKm8etOPAzbKyVX3uG3-18" value="&lt;div&gt;&lt;span style=&quot;background-color: initial;&quot;&gt;inputWholesale&lt;/span&gt;&lt;/div&gt;&lt;div&gt;&lt;span style=&quot;background-color: initial;&quot;&gt;CostOfMaterial&lt;/span&gt;&lt;/div&gt;" style="shape=parallelogram;perimeter=parallelogramPerimeter;whiteSpace=wrap;html=1;fixedSize=1;" parent="1" vertex="1">
          <mxGeometry x="276" y="344" width="120" height="46" as="geometry" />
        </mxCell>
        <mxCell id="lHKm8etOPAzbKyVX3uG3-46" style="edgeStyle=orthogonalEdgeStyle;rounded=0;orthogonalLoop=1;jettySize=auto;html=1;exitX=0.5;exitY=1;exitDx=0;exitDy=0;entryX=0.5;entryY=0;entryDx=0;entryDy=0;" parent="1" source="lHKm8etOPAzbKyVX3uG3-24" edge="1">
          <mxGeometry relative="1" as="geometry">
            <mxPoint x="489" y="250" as="targetPoint" />
          </mxGeometry>
        </mxCell>
        <mxCell id="lHKm8etOPAzbKyVX3uG3-24" value="HourlyLaborRate = $30" style="rounded=0;whiteSpace=wrap;html=1;" parent="1" vertex="1">
          <mxGeometry x="425" y="160" width="120" height="70" as="geometry" />
        </mxCell>
        <mxCell id="TvsNB58-NHMxZF3t1qE1-5" style="edgeStyle=orthogonalEdgeStyle;rounded=0;orthogonalLoop=1;jettySize=auto;html=1;exitX=0.5;exitY=1;exitDx=0;exitDy=0;entryX=0.5;entryY=0;entryDx=0;entryDy=0;" parent="1" source="lHKm8etOPAzbKyVX3uG3-29" target="lHKm8etOPAzbKyVX3uG3-31" edge="1">
          <mxGeometry relative="1" as="geometry" />
        </mxCell>
        <mxCell id="lHKm8etOPAzbKyVX3uG3-29" value="print&lt;div&gt;Customer&lt;/div&gt;&lt;div&gt;Name&lt;/div&gt;" style="shape=parallelogram;perimeter=parallelogramPerimeter;whiteSpace=wrap;html=1;fixedSize=1;" parent="1" vertex="1">
          <mxGeometry x="587" y="178" width="120" height="40" as="geometry" />
        </mxCell>
        <mxCell id="lHKm8etOPAzbKyVX3uG3-35" style="edgeStyle=orthogonalEdgeStyle;rounded=0;orthogonalLoop=1;jettySize=auto;html=1;exitX=0.5;exitY=1;exitDx=0;exitDy=0;entryX=0.5;entryY=0;entryDx=0;entryDy=0;" parent="1" source="lHKm8etOPAzbKyVX3uG3-31" target="lHKm8etOPAzbKyVX3uG3-32" edge="1">
          <mxGeometry relative="1" as="geometry" />
        </mxCell>
        <mxCell id="lHKm8etOPAzbKyVX3uG3-31" value="print&lt;div&gt;CostOfLabor&lt;/div&gt;" style="shape=parallelogram;perimeter=parallelogramPerimeter;whiteSpace=wrap;html=1;fixedSize=1;" parent="1" vertex="1">
          <mxGeometry x="587" y="261" width="120" height="59" as="geometry" />
        </mxCell>
        <mxCell id="lHKm8etOPAzbKyVX3uG3-37" style="edgeStyle=orthogonalEdgeStyle;rounded=0;orthogonalLoop=1;jettySize=auto;html=1;exitX=0.5;exitY=1;exitDx=0;exitDy=0;entryX=0.5;entryY=0;entryDx=0;entryDy=0;" parent="1" source="lHKm8etOPAzbKyVX3uG3-32" target="lHKm8etOPAzbKyVX3uG3-36" edge="1">
          <mxGeometry relative="1" as="geometry" />
        </mxCell>
        <mxCell id="lHKm8etOPAzbKyVX3uG3-32" value="print&lt;div&gt;WholesaleCost&lt;/div&gt;&lt;div&gt;OfMaterials&lt;/div&gt;" style="shape=parallelogram;perimeter=parallelogramPerimeter;whiteSpace=wrap;html=1;fixedSize=1;" parent="1" vertex="1">
          <mxGeometry x="587" y="360" width="120" height="59" as="geometry" />
        </mxCell>
        <mxCell id="lHKm8etOPAzbKyVX3uG3-39" style="edgeStyle=orthogonalEdgeStyle;rounded=0;orthogonalLoop=1;jettySize=auto;html=1;exitX=0.5;exitY=1;exitDx=0;exitDy=0;entryX=0.5;entryY=0;entryDx=0;entryDy=0;" parent="1" source="lHKm8etOPAzbKyVX3uG3-36" edge="1">
          <mxGeometry relative="1" as="geometry">
            <mxPoint x="647" y="540" as="targetPoint" />
          </mxGeometry>
        </mxCell>
        <mxCell id="lHKm8etOPAzbKyVX3uG3-36" value="print&lt;div&gt;TotalCostOf&lt;/div&gt;&lt;div&gt;Project&lt;/div&gt;" style="shape=parallelogram;perimeter=parallelogramPerimeter;whiteSpace=wrap;html=1;fixedSize=1;" parent="1" vertex="1">
          <mxGeometry x="587" y="450" width="120" height="59" as="geometry" />
        </mxCell>
        <mxCell id="lHKm8etOPAzbKyVX3uG3-43" value="printProgram&lt;div&gt;IsComplete&lt;/div&gt;" style="shape=parallelogram;perimeter=parallelogramPerimeter;whiteSpace=wrap;html=1;fixedSize=1;" parent="1" vertex="1">
          <mxGeometry x="587" y="540" width="120" height="59" as="geometry" />
        </mxCell>
        <mxCell id="lHKm8etOPAzbKyVX3uG3-49" value="totalCost = HourlyLaborRate + WholesaleCostOf&lt;div&gt;Materials * 120%&lt;/div&gt;" style="rounded=0;whiteSpace=wrap;html=1;" parent="1" vertex="1">
          <mxGeometry x="425" y="251" width="120" height="90" as="geometry" />
        </mxCell>
        <mxCell id="xGRXicxarG8ZQ8TfV6se-1" style="edgeStyle=orthogonalEdgeStyle;rounded=0;orthogonalLoop=1;jettySize=auto;html=1;exitX=0.5;exitY=1;exitDx=0;exitDy=0;entryX=0.455;entryY=0.018;entryDx=0;entryDy=0;entryPerimeter=0;" edge="1" parent="1" source="lHKm8etOPAzbKyVX3uG3-5" target="lHKm8etOPAzbKyVX3uG3-11">
          <mxGeometry relative="1" as="geometry" />
        </mxCell>
      </root>
    </mxGraphModel>
  </diagram>
</mxfile>
